<?xml version="1.0" standalone="no"?>
<!DOCTYPE svg PUBLIC "-//W3C//DTD SVG 20010904//EN"
 "http://www.w3.org/TR/2001/REC-SVG-20010904/DTD/svg10.dtd">
<svg version="1.0" xmlns="http://www.w3.org/2000/svg"
 width="152.000000pt" height="152.000000pt" viewBox="0 0 152.000000 152.000000"
 preserveAspectRatio="xMidYMid meet">

<g transform="translate(0.000000,152.000000) scale(0.100000,-0.100000)"
fill="#000000" stroke="none">
<path d="M606 1504 c-150 -33 -274 -101 -381 -209 -234 -233 -287 -571 -138
-875 40 -80 61 -109 138 -185 102 -102 167 -144 292 -189 84 -30 94 -31 243
-31 144 0 161 2 235 28 119 42 209 99 300 191 91 93 137 164 176 276 72 202
57 409 -42 600 -98 189 -271 330 -474 385 -87 24 -264 28 -349 9z m442 -346
c106 -39 197 -137 229 -247 23 -79 14 -200 -19 -271 -37 -80 -98 -144 -174
-181 -56 -28 -95 -37 -292 -65 -125 -18 -236 -33 -247 -34 -14 0 -2 18 50 71
l70 71 -65 -6 c-36 -3 -108 -8 -160 -11 l-95 -6 45 40 c25 22 68 60 97 83 29
24 52 46 53 49 0 3 -71 -3 -157 -13 -258 -30 -257 -33 -46 107 110 73 177 123
170 127 -7 4 -37 8 -67 9 -30 0 -66 4 -80 8 -25 7 -25 7 15 33 196 124 327
204 367 224 90 46 202 50 306 12z"/>
<path d="M799 1007 c-58 -31 -104 -93 -119 -160 -10 -45 -10 -62 3 -108 44
-150 204 -217 338 -142 165 92 157 327 -13 414 -55 28 -152 26 -209 -4z"/>
</g>
</svg>
