<?xml version="1.0" encoding="UTF-8"?> <svg xmlns="http://www.w3.org/2000/svg" width="401" height="57" viewBox="0 0 401 57" fill="none"><g clip-path="url(#clip0_726_656)"><path d="M114.756 6.7959H105.048V15.9064H97.2046V23.8264H105.048V37.3574C105.048 44.8797 109.183 48.9026 116.818 48.9026H124.796V40.3874L119.077 40.3207C116.148 40.254 114.683 38.8676 114.683 36.1618V23.8213H124.791V15.9064H114.756V6.7959Z" fill="#f48fb1"></path><path d="M87.4986 0C83.9062 0 81.314 2.44249 81.314 5.93941C81.314 9.50303 83.8984 12.0789 87.4986 12.0789C91.0212 12.0789 93.5487 9.51329 93.5487 5.93941C93.5487 2.51433 91.0212 0 87.4986 0Z" fill="#f48fb1"></path><path d="M26.9945 18.9164C24.5083 16.5279 21.1304 15.1143 16.954 15.1143C7.39151 15.1143 0 22.6391 0 32.3397C0 42.1095 7.38117 49.6344 16.954 49.6344C21.1304 49.6344 24.5083 48.2182 26.9945 45.8245V48.9032H36.557V15.907H26.9945V18.9164ZM18.2074 41.3834C13.222 41.3834 9.49784 37.5556 9.49784 32.3397C9.49784 27.1931 13.222 23.3601 18.2074 23.3601C23.26 23.3601 26.9945 27.188 26.9945 32.3397C26.9945 37.5556 23.2703 41.3834 18.2178 41.3834H18.2074Z" fill="#f48fb1"></path><path d="M59.4987 37.2376L50.7322 15.9072H40.3608L54.521 48.9086H54.6554H64.2954H64.4272L78.7218 15.9072H68.3504L59.4987 37.2376Z" fill="#f48fb1"></path><path d="M92.4184 15.9072H82.5122V48.9086H92.4184V15.9072Z" fill="#f48fb1"></path><path d="M270.203 23.3652C274.393 23.3652 277.649 25.8718 278.582 29.7664H287.757C287.224 21.3846 279.644 15.1143 270.071 15.1143C259.899 15.1143 251.921 22.6391 251.921 32.3397C251.921 42.0402 259.899 49.5677 270.071 49.5677C279.634 49.5677 287.224 43.2974 287.757 34.9156H278.507C277.577 38.8076 274.318 41.3834 270.196 41.3834C265.076 41.3834 261.408 37.6197 261.408 32.2755C261.426 27.0597 265.083 23.3652 270.203 23.3652Z" fill="#f48fb1"></path><path d="M312.089 15.1141C305.369 15.1141 302.182 18.8752 302.182 18.8752V2.71191H292.411V48.9159H302.118V31.3568C302.118 26.5386 304.976 23.4369 309.354 23.4369C313.541 23.4369 315.735 25.615 315.735 29.7072V48.9159H325.442V27.9908C325.453 19.999 320.4 15.1141 312.089 15.1141Z" fill="#f48fb1"></path><path d="M146.34 15.1143C135.901 15.1143 127.789 22.6391 127.789 32.3397C127.789 42.1095 135.901 49.6344 146.34 49.6344C156.846 49.6344 164.948 42.1095 164.948 32.3397C164.955 22.6391 156.846 15.1143 146.34 15.1143ZM146.34 41.3834C144.547 41.3773 142.797 40.8446 141.309 39.8523C139.821 38.86 138.663 37.4526 137.979 35.8076C137.296 34.1626 137.119 32.3536 137.47 30.6087C137.821 28.8638 138.685 27.261 139.952 26.0027C141.219 24.7443 142.833 23.8866 144.591 23.5377C146.348 23.1887 148.171 23.3642 149.828 24.0419C151.485 24.7197 152.903 25.8694 153.903 27.3461C154.903 28.8228 155.441 30.5603 155.447 32.3397C155.464 33.5318 155.24 34.7152 154.789 35.8199C154.337 36.9246 153.667 37.9282 152.818 38.7714C151.969 39.6145 150.958 40.2801 149.845 40.7288C148.733 41.1774 147.541 41.4 146.34 41.3834Z" fill="#f48fb1"></path><path d="M230.508 15.1143C220.468 15.1143 212.624 22.6391 212.624 32.3397C212.624 42.0402 220.468 49.5677 230.508 49.5677C238.82 49.5677 245.733 44.552 247.53 37.5556H238.484C237.71 38.9401 236.57 40.0893 235.188 40.8798C233.806 41.6703 232.233 42.0724 230.638 42.0428C226.099 42.0428 222.696 39.1847 221.737 34.8591H247.793C247.858 34.0664 247.925 33.2094 247.925 32.35C247.928 22.6392 240.347 15.1143 230.508 15.1143ZM230.64 22.7033C234.623 22.7033 237.672 24.9046 238.983 28.3143H222.184C223.523 24.8918 226.639 22.7033 230.64 22.7033Z" fill="#f48fb1"></path><path d="M176.323 37.1494C172.534 37.1494 169.875 39.715 169.875 43.4197C169.875 47.1835 172.534 49.8337 176.323 49.8337C179.98 49.8337 182.64 47.1937 182.64 43.4197C182.64 39.733 180.04 37.1494 176.323 37.1494Z" fill="#f48fb1"></path><path d="M199.594 6.7959H189.887V15.9064H182.043V23.8264H189.887V37.3574C189.887 44.8797 194.022 48.9026 201.656 48.9026H209.635V40.3874L203.918 40.3207C200.989 40.254 199.524 38.8676 199.524 36.1618V23.8213H209.629V15.9064H199.589L199.594 6.7959Z" fill="#f48fb1"></path><path d="M367.295 36.5033C366.738 35.0107 366.484 33.4233 366.549 31.8328C366.614 30.2423 366.995 28.6803 367.672 27.2371C368.348 25.794 369.306 24.4983 370.491 23.4249C371.675 22.3516 373.061 21.522 374.571 20.984C377.595 19.9463 380.91 20.1318 383.798 21.5004C386.686 22.869 388.916 25.3108 390.005 28.298C391.095 31.2853 390.956 34.578 389.62 37.4648C388.284 40.3516 385.857 42.6004 382.864 43.7255C381.364 44.2667 379.771 44.5092 378.177 44.4391C376.583 44.369 375.018 43.9877 373.572 43.317C372.126 42.6462 370.828 41.6993 369.751 40.5302C368.674 39.3611 367.839 37.9927 367.295 36.5033ZM335.731 42.6608L358.578 40.2466L346.912 50.3114L365.037 48.9337L356.844 57L377.814 54.2419C381.634 53.7596 383.787 53.2773 386.149 52.3793C397.19 48.1743 403.023 36.0415 398.996 24.9427C398.032 22.2974 396.552 19.8667 394.64 17.7898C392.729 15.713 390.424 14.0307 387.857 12.8392C385.29 11.6477 382.511 10.9704 379.68 10.8461C376.849 10.7218 374.021 11.1528 371.358 12.1147C369.066 12.9408 367.189 13.9106 363.788 16.0452L346.01 27.2184L357.467 28.1831L335.731 42.6608Z" fill="#f48fb1"></path></g><defs><clipPath id="clip0_726_656"><rect width="401" height="57" fill="#f48fb1"></rect></clipPath></defs></svg> 